#N canvas 213 424 781 544 10;
#X obj 30 472 dac~;
#X obj 30 292 mtof;
#X obj 210 396 osc~;
#X obj 210 470 dac~;
#X obj 210 292 mtof;
#X obj 480 386 osc~;
#X obj 479 474 dac~;
#X obj 480 292 mtof;
#X obj 30 388 triangle~;
#X obj 340 471 dac~;
#X obj 340 292 mtof;
#X obj 340 388 triangle~;
#X obj 30 270 + 0;
#X obj 210 271 + 2;
#X obj 340 272 + 5;
#X obj 480 272 + 7;
#X obj 79 106 inlet;
#X text 63 82 key (midi value);
#X text 582 20 amplitudes;
#X obj 409 179 vline~;
#X obj 409 49 inlet;
#X obj 459 49 inlet;
#X obj 509 49 inlet;
#X obj 579 42 inlet;
#X floatatom 409 70 5 0 0 0 - - - 0;
#X floatatom 459 70 5 0 0 0 - - - 0;
#X floatatom 509 70 5 0 0 0 - - - 0;
#X msg 409 157 \$1 400;
#X msg 459 157 \$1 400;
#X msg 509 157 \$1 400;
#X msg 579 157 \$1 400;
#X obj 459 179 vline~;
#X obj 509 179 vline~;
#X obj 579 179 vline~;
#X obj 30 448 *~;
#X obj 209 446 *~;
#X obj 340 447 *~;
#X obj 479 449 *~;
#X obj 657 80 *~ 1e-07;
#X obj 657 105 snapshot~;
#X obj 409 132 +;
#X obj 459 132 +;
#X obj 509 132 +;
#X obj 579 132 +;
#X obj 579 63 t f b;
#X floatatom 579 85 5 0 0 0 - - - 0;
#X obj 424 106 r pink;
#X obj 474 106 r pink;
#X obj 524 106 r pink;
#X obj 594 106 r pink;
#X obj 657 128 s pink;
#X obj 658 57 noise~;
#X obj 30 343 vline~;
#X obj 210 343 vline~;
#X obj 340 343 vline~;
#X obj 480 343 vline~;
#X msg 30 321 \$1 300;
#X msg 209 320 \$1 300;
#X msg 340 321 \$1 300;
#X msg 480 321 \$1 300;
#X connect 1 0 56 0;
#X connect 2 0 35 0;
#X connect 4 0 57 0;
#X connect 5 0 37 0;
#X connect 7 0 59 0;
#X connect 8 0 34 0;
#X connect 10 0 58 0;
#X connect 11 0 36 0;
#X connect 12 0 1 0;
#X connect 13 0 4 0;
#X connect 14 0 10 0;
#X connect 15 0 7 0;
#X connect 16 0 12 0;
#X connect 16 0 13 0;
#X connect 16 0 14 0;
#X connect 16 0 15 0;
#X connect 19 0 34 1;
#X connect 20 0 24 0;
#X connect 21 0 25 0;
#X connect 22 0 26 0;
#X connect 23 0 44 0;
#X connect 24 0 40 0;
#X connect 25 0 41 0;
#X connect 26 0 42 0;
#X connect 27 0 19 0;
#X connect 28 0 31 0;
#X connect 29 0 32 0;
#X connect 30 0 33 0;
#X connect 31 0 35 1;
#X connect 32 0 36 1;
#X connect 33 0 37 1;
#X connect 34 0 0 0;
#X connect 34 0 0 1;
#X connect 35 0 3 0;
#X connect 35 0 3 1;
#X connect 36 0 9 0;
#X connect 36 0 9 1;
#X connect 37 0 6 0;
#X connect 37 0 6 1;
#X connect 38 0 39 0;
#X connect 39 0 50 0;
#X connect 40 0 27 0;
#X connect 41 0 28 0;
#X connect 42 0 29 0;
#X connect 43 0 30 0;
#X connect 44 0 45 0;
#X connect 44 1 39 0;
#X connect 45 0 43 0;
#X connect 46 0 40 1;
#X connect 47 0 41 1;
#X connect 48 0 42 1;
#X connect 49 0 43 1;
#X connect 51 0 38 0;
#X connect 52 0 8 0;
#X connect 53 0 2 0;
#X connect 54 0 11 0;
#X connect 55 0 5 0;
#X connect 56 0 52 0;
#X connect 57 0 53 0;
#X connect 58 0 54 0;
#X connect 59 0 55 0;
