#N canvas 673 308 631 475 10;
#X obj 24 58 pack f f f;
#X obj 24 81 route 1 2 3 4 5 6;
#X obj 24 35 poly 6 1;
#X obj 24 13 inlet;
#X obj 64 212 fmvoice~;
#X obj 177 57 inlet;
#X obj 277 76 inlet;
#X text 178 29 harmonic;
#X text 279 54 index;
#X obj 24 152 fmvoice~;
#X obj 44 182 fmvoice~;
#X obj 84 242 fmvoice~;
#X obj 104 272 fmvoice~;
#X obj 124 302 fmvoice~;
#X text 377 95 attack;
#X text 453 146 decay;
#X obj 383 117 f 5;
#X obj 455 171 f 1000;
#X obj 499 26 loadbang;
#X obj 25 374 /~ 6;
#X obj 25 407 outlet~;
#X connect 0 0 1 0;
#X connect 1 0 9 0;
#X connect 1 1 10 0;
#X connect 1 2 4 0;
#X connect 1 3 11 0;
#X connect 1 4 12 0;
#X connect 1 5 13 0;
#X connect 2 0 0 0;
#X connect 2 1 0 1;
#X connect 2 2 0 2;
#X connect 3 0 2 0;
#X connect 4 0 19 0;
#X connect 5 0 4 1;
#X connect 5 0 9 1;
#X connect 5 0 10 1;
#X connect 5 0 11 1;
#X connect 5 0 12 1;
#X connect 5 0 13 1;
#X connect 6 0 4 2;
#X connect 6 0 9 2;
#X connect 6 0 10 2;
#X connect 6 0 11 2;
#X connect 6 0 12 2;
#X connect 6 0 13 2;
#X connect 9 0 19 0;
#X connect 10 0 19 0;
#X connect 11 0 19 0;
#X connect 12 0 19 0;
#X connect 13 0 19 0;
#X connect 16 0 9 3;
#X connect 16 0 10 3;
#X connect 16 0 4 3;
#X connect 16 0 11 3;
#X connect 16 0 12 3;
#X connect 16 0 13 3;
#X connect 17 0 9 4;
#X connect 17 0 10 4;
#X connect 17 0 4 4;
#X connect 17 0 11 4;
#X connect 17 0 12 4;
#X connect 17 0 13 4;
#X connect 18 0 16 0;
#X connect 18 0 17 0;
#X connect 19 0 20 0;
