#N canvas 709 126 1138 584 10;
#X obj 1029 31 loadbang;
#X obj 1029 52 delay 100;
#X msg 1029 76 \; pd dsp 1;
#X floatatom 94 174 5 0 0 0 - - - 0;
#X obj 78 496 chorusfilter_nobeating;
#X obj 94 204 + 50;
#X obj 144 204 + 57.1;
#X obj 164 48 netreceive 8000;
#X obj 630 61 unpack f f;
#X obj 630 107 + 60;
#X obj 630 147 pack f f;
#X obj 94 224 s keyL;
#X obj 144 224 s keyR;
#X obj 78 465 r keyL;
#X obj 236 308 unpack f f;
#X obj 236 339 s aveL;
#X obj 293 339 s aveR;
#X obj 273 249 unpack f f;
#X obj 309 200 unpack f f;
#X obj 273 276 s rollL;
#X obj 330 276 s rollR;
#X obj 651 85 r keyR;
#X obj 345 178 s hitL;
#X obj 382 157 s hitR;
#X obj 630 28 r hitL;
#X text 182 70 cof and hits are spontaneous \, all others are continuous
;
#X obj 830 61 unpack f f;
#X obj 830 107 + 60;
#X obj 830 147 pack f f;
#X obj 830 28 r hitR;
#X obj 851 85 r keyL;
#X text 415 257 -512 to 512;
#X text 379 297 -512 to 512;
#X text 345 357 0 to 1023;
#X floatatom 361 340 5 0 0 0 - - - 0;
#X floatatom 440 280 5 0 0 0 - - - 0;
#X floatatom 450 233 5 0 0 0 - - - 0;
#X obj 668 510 cpdelay~;
#X obj 629 484 spigot~;
#X obj 630 542 dac~;
#X obj 668 438 tgl 15 0 empty empty empty 17 7 0 10 #fcfcfc #000000
#000000 0 1;
#X obj 868 510 cpdelay~;
#X obj 830 542 dac~;
#X obj 690 459 r rollR;
#X obj 690 478 + 512;
#X obj 890 479 + 512;
#X obj 890 460 r rollL;
#X obj 649 258 expr 512+$f1*2;
#X obj 849 259 expr 512+$f1*2;
#X obj 630 323 fmpoly6;
#X obj 830 323 fmpoly6;
#X obj 309 228 s pitchL;
#X obj 366 228 s pitchR;
#X obj 649 235 r pitchR;
#X obj 849 235 r pitchL;
#X obj 829 484 spigot~;
#X obj 639 187 r rollR;
#X obj 839 182 r rollL;
#X obj 639 210 expr 10+$f1/1000;
#X obj 839 210 expr 10+$f1/1000;
#X obj 130 448 normalize_quadrant;
#X obj 268 496 chorusfilter_nobeating;
#X obj 320 448 normalize_quadrant;
#X obj 268 465 r keyR;
#X obj 95 124 loadbang;
#X msg 95 150 10;
#X obj 675 391 loadbang;
#X msg 675 411 0;
#X obj 200 389 unpack f f f f f f f f;
#X obj 668 368 r ldelay;
#X obj 868 438 tgl 15 0 empty empty empty 17 7 0 10 #fcfcfc #000000
#000000 0 1;
#X obj 875 391 loadbang;
#X msg 875 411 0;
#X obj 868 368 r rdelay;
#X obj 164 91 route cof bs aves rolls pitches hitL hitR lswipe rswipe
;
#X obj 418 137 s rdelay;
#X obj 454 117 s ldelay;
#X connect 0 0 1 0;
#X connect 1 0 2 0;
#X connect 3 0 5 0;
#X connect 3 0 6 0;
#X connect 5 0 11 0;
#X connect 6 0 12 0;
#X connect 7 0 74 0;
#X connect 8 0 9 0;
#X connect 8 1 10 1;
#X connect 9 0 10 0;
#X connect 10 0 49 0;
#X connect 13 0 4 0;
#X connect 14 0 15 0;
#X connect 14 0 34 0;
#X connect 14 1 16 0;
#X connect 17 0 19 0;
#X connect 17 0 35 0;
#X connect 17 1 20 0;
#X connect 18 0 36 0;
#X connect 18 0 51 0;
#X connect 18 1 52 0;
#X connect 21 0 9 1;
#X connect 24 0 8 0;
#X connect 26 0 27 0;
#X connect 26 1 28 1;
#X connect 27 0 28 0;
#X connect 28 0 50 0;
#X connect 29 0 26 0;
#X connect 30 0 27 1;
#X connect 37 0 39 0;
#X connect 37 0 39 1;
#X connect 38 0 39 0;
#X connect 38 0 39 1;
#X connect 38 1 37 0;
#X connect 40 0 38 1;
#X connect 41 0 42 0;
#X connect 41 0 42 1;
#X connect 43 0 44 0;
#X connect 44 0 37 1;
#X connect 45 0 41 1;
#X connect 46 0 45 0;
#X connect 47 0 49 2;
#X connect 48 0 50 2;
#X connect 49 0 38 0;
#X connect 50 0 55 0;
#X connect 53 0 47 0;
#X connect 54 0 48 0;
#X connect 55 0 42 0;
#X connect 55 0 42 1;
#X connect 55 1 41 0;
#X connect 56 0 58 0;
#X connect 57 0 59 0;
#X connect 58 0 49 1;
#X connect 59 0 50 1;
#X connect 60 0 4 1;
#X connect 60 1 4 2;
#X connect 60 2 4 3;
#X connect 60 3 4 4;
#X connect 62 0 61 1;
#X connect 62 1 61 2;
#X connect 62 2 61 3;
#X connect 62 3 61 4;
#X connect 63 0 61 0;
#X connect 64 0 65 0;
#X connect 65 0 3 0;
#X connect 66 0 67 0;
#X connect 67 0 40 0;
#X connect 68 0 60 0;
#X connect 68 1 60 1;
#X connect 68 2 60 2;
#X connect 68 3 60 3;
#X connect 68 4 62 0;
#X connect 68 5 62 1;
#X connect 68 6 62 2;
#X connect 68 7 62 3;
#X connect 69 0 40 0;
#X connect 70 0 55 1;
#X connect 71 0 72 0;
#X connect 72 0 70 0;
#X connect 73 0 70 0;
#X connect 74 0 3 0;
#X connect 74 1 68 0;
#X connect 74 2 14 0;
#X connect 74 3 17 0;
#X connect 74 4 18 0;
#X connect 74 5 22 0;
#X connect 74 6 23 0;
#X connect 74 7 75 0;
#X connect 74 8 76 0;
