#N canvas 327 657 354 304 10;
#X obj 22 26 inlet;
#X obj 19 261 outlet;
#X obj 68 260 outlet;
#X obj 119 261 outlet;
#X obj 168 260 outlet;
#X obj 66 26 inlet;
#X obj 110 26 inlet;
#X obj 154 26 inlet;
#X obj 22 65 expr (512-$f1)/10000;
#X obj 66 86 expr (512-$f1)/10000;
#X obj 111 106 expr (512-$f1)/10000;
#X obj 154 128 expr (512-$f1)/10000;
#X connect 0 0 8 0;
#X connect 5 0 9 0;
#X connect 6 0 10 0;
#X connect 7 0 11 0;
#X connect 8 0 1 0;
#X connect 9 0 2 0;
#X connect 10 0 3 0;
#X connect 11 0 4 0;
