#N canvas 1175 102 450 399 12;
#X obj 150 130 phasor~;
#X obj 150 155 *~ 2;
#X obj 150 180 -~ 1;
#X obj 149 206 clip~ 0 1;
#X obj 149 261 +~;
#X obj 240 130 phasor~;
#X obj 240 155 *~ 2;
#X obj 240 180 -~ 1;
#X obj 239 206 clip~ 0 1;
#X obj 149 286 *~ 0.7;
#X obj 148 336 outlet~;
#X obj 240 107 *~ -1;
#X obj 151 30 inlet~;
#X connect 0 0 1 0;
#X connect 1 0 2 0;
#X connect 2 0 3 0;
#X connect 3 0 4 0;
#X connect 4 0 9 0;
#X connect 5 0 6 0;
#X connect 6 0 7 0;
#X connect 7 0 8 0;
#X connect 8 0 4 1;
#X connect 9 0 10 0;
#X connect 11 0 5 0;
#X connect 12 0 11 0;
#X connect 12 0 0 0;
