#N canvas 950 -8 960 976 10;
#X declare -path ../../common;
#X obj 529 154 netreceive 8000;
#X msg 20 49 \; pd dsp 1;
#X obj 20 15 loadbang;
#X obj 529 188 unpack f f f f;
#X floatatom 611 227 5 0 0 0 - - - 0;
#X floatatom 652 227 5 0 0 0 - - - 0;
#X floatatom 529 227 5 0 0 0 - - - 0;
#X floatatom 570 227 5 0 0 0 - - - 0;
#X obj 156 497 *~;
#X obj 172 474 vline~;
#X obj 156 116 asdf, f 8;
#X obj 156 334 mtof;
#X obj 156 267 unpack f f f f;
#X msg 156 174 60 64 67 70;
#X msg 172 454 \$1 200;
#X msg 216 214 57 60 67 74;
#X obj 433 643 elektronDelay~;
#X obj 411 680 dac~;
#X obj 410 616 *~ 1;
#X msg 186 194 62 65 69 70;
#X obj 172 414 expr (255-$f1)/255;
#X obj 172 434 pow 8;
#X obj 93 16 declare -path ../../common;
#X obj 156 358 triangle~ 200;
#X obj 316 497 *~;
#X obj 332 474 vline~;
#X obj 316 334 mtof;
#X msg 332 454 \$1 200;
#X obj 332 414 expr (255-$f1)/255;
#X obj 332 434 pow 8;
#X obj 476 497 *~;
#X obj 492 474 vline~;
#X obj 476 334 mtof;
#X msg 492 454 \$1 200;
#X obj 492 414 expr (255-$f1)/255;
#X obj 492 434 pow 8;
#X obj 636 497 *~;
#X obj 652 474 vline~;
#X obj 636 334 mtof;
#X msg 652 454 \$1 200;
#X obj 652 414 expr (255-$f1)/255;
#X obj 636 523 *~ 0.2;
#X obj 652 434 pow 8;
#X obj 316 358 triangle~ 400;
#X obj 476 358 triangle~ 600;
#X obj 636 358 triangle~ 800;
#X obj 156 523 *~ 0.25;
#X obj 316 523 *~ 0.25;
#X obj 476 523 *~ 0.25;
#X obj 172 393 clip 0 255;
#X obj 332 393 clip 0 255;
#X obj 492 393 clip 0 255;
#X obj 652 393 clip 0 255;
#X msg 246 234 58 65 67 72;
#X obj 224 116 loadbang;
#X connect 0 0 3 0;
#X connect 2 0 1 0;
#X connect 3 0 6 0;
#X connect 3 1 7 0;
#X connect 3 2 4 0;
#X connect 3 3 5 0;
#X connect 4 0 51 0;
#X connect 5 0 52 0;
#X connect 6 0 49 0;
#X connect 7 0 50 0;
#X connect 8 0 46 0;
#X connect 9 0 8 1;
#X connect 10 0 13 0;
#X connect 10 1 19 0;
#X connect 10 2 15 0;
#X connect 10 3 53 0;
#X connect 11 0 23 0;
#X connect 12 0 11 0;
#X connect 12 1 26 0;
#X connect 12 2 32 0;
#X connect 12 3 38 0;
#X connect 13 0 12 0;
#X connect 14 0 9 0;
#X connect 15 0 12 0;
#X connect 16 0 17 0;
#X connect 16 0 17 1;
#X connect 18 0 17 0;
#X connect 18 0 17 1;
#X connect 18 0 16 0;
#X connect 19 0 12 0;
#X connect 20 0 21 0;
#X connect 21 0 14 0;
#X connect 23 0 8 0;
#X connect 24 0 47 0;
#X connect 25 0 24 1;
#X connect 26 0 43 0;
#X connect 27 0 25 0;
#X connect 28 0 29 0;
#X connect 29 0 27 0;
#X connect 30 0 48 0;
#X connect 31 0 30 1;
#X connect 32 0 44 0;
#X connect 33 0 31 0;
#X connect 34 0 35 0;
#X connect 35 0 33 0;
#X connect 36 0 41 0;
#X connect 37 0 36 1;
#X connect 38 0 45 0;
#X connect 39 0 37 0;
#X connect 40 0 42 0;
#X connect 41 0 18 0;
#X connect 42 0 39 0;
#X connect 43 0 24 0;
#X connect 44 0 30 0;
#X connect 45 0 36 0;
#X connect 46 0 18 0;
#X connect 47 0 18 0;
#X connect 48 0 18 0;
#X connect 49 0 20 0;
#X connect 50 0 28 0;
#X connect 51 0 34 0;
#X connect 52 0 40 0;
#X connect 53 0 12 0;
#X connect 54 0 13 0;
